# xmcd CD database file
#
# Track frame offsets:
#	150
#	15843
#	38047
#	71236
#	95229
#	113767
#	147965
#	175912
#	204461
#	222981
#	241926
#
# Disc length: 3645 seconds
#
# Revision: 0
# Processed by: cddbd v1.5.1PL0 Copyright (c) Steve Scherf et al.
# Submitted via: CDex 1.51
#
DISCID=9a0e3b0b
DTITLE=Oscar Peterson Trio - Live In Paris
DYEAR=2005
DGENRE=Jazz
TTITLE0=But Not For Me
TTITLE1=Mainstem
TTITLE2=Satin Doll
TTITLE3=My One And Only Love
TTITLE4=Tangerine
TTITLE5=Six And Four
TTITLE6=Nightingale
TTITLE7=You Look Good To Me
TTITLE8=Someday My Prince Will Come
TTITLE9=I Concentrate On You
TTITLE10=Lil' Darlin'
EXTD=YEAR: 2005
EXTT0=
EXTT1=
EXTT2=
EXTT3=
EXTT4=
EXTT5=
EXTT6=
EXTT7=
EXTT8=
EXTT9=
EXTT10=
PLAYORDER=
